<svg width="32" height="32" viewBox="0 0 32 32" fill="none" xmlns="http://www.w3.org/2000/svg">
<g id="FireExtinguisher">
<path id="Vector" opacity="0.2" d="M22 21V29C22 29.2652 21.8946 29.5196 21.7071 29.7071C21.5196 29.8946 21.2652 30 21 30H13C12.7348 30 12.4804 29.8946 12.2929 29.7071C12.1054 29.5196 12 29.2652 12 29V21H22Z" fill="#277875"/>
<path id="Vector_2" d="M27.2875 6.0425L19.7025 3.7675L23.4525 1.8925C23.6894 1.77315 23.8691 1.5646 23.9522 1.31271C24.0353 1.06083 24.015 0.786247 23.8956 0.549375C23.7763 0.312504 23.5677 0.132744 23.3158 0.0496424C23.064 -0.0334597 22.7894 -0.0130972 22.5525 0.10625L16.75 3.00625C14.1422 3.07401 11.6639 4.1571 9.84284 6.02489C8.02174 7.89268 7.00173 10.3976 7 13.0063V26C7 26.2652 7.10536 26.5196 7.29289 26.7071C7.48043 26.8946 7.73478 27 8 27C8.26522 27 8.51957 26.8946 8.70711 26.7071C8.89464 26.5196 9 26.2652 9 26V22H11V29C11 29.5304 11.2107 30.0391 11.5858 30.4142C11.9609 30.7893 12.4696 31 13 31H21C21.5304 31 22.0391 30.7893 22.4142 30.4142C22.7893 30.0391 23 29.5304 23 29V13C22.998 11.5827 22.4951 10.2118 21.5802 9.12943C20.6652 8.04706 19.3971 7.32293 18 7.085V5.34375L26.7125 7.9575C26.8392 7.99878 26.9729 8.0143 27.1057 8.00317C27.2385 7.99204 27.3678 7.95448 27.4859 7.89269C27.6039 7.83089 27.7085 7.74612 27.7933 7.64335C27.8782 7.54058 27.9416 7.42189 27.98 7.29424C28.0183 7.1666 28.0307 7.03258 28.0165 6.90007C28.0023 6.76756 27.9617 6.63922 27.8972 6.5226C27.8327 6.40598 27.7456 6.30344 27.6408 6.22099C27.5361 6.13854 27.416 6.07786 27.2875 6.0425ZM11 13V20H9V13C9.00242 11.0524 9.71449 9.17237 11.0029 7.71183C12.2914 6.25129 14.0679 5.31031 16 5.065V7.085C14.6029 7.32293 13.3348 8.04706 12.4198 9.12943C11.5049 10.2118 11.002 11.5827 11 13ZM21 29H13V22H21V29ZM21 13V20H13V13C13 11.9391 13.4214 10.9217 14.1716 10.1716C14.9217 9.42143 15.9391 9 17 9C18.0609 9 19.0783 9.42143 19.8284 10.1716C20.5786 10.9217 21 11.9391 21 13Z" fill="#277875"/>
</g>
</svg>
