<svg width="77" height="76" viewBox="0 0 77 76" fill="none" xmlns="http://www.w3.org/2000/svg">
<g id="fluent:call-warning-16-regular" clip-path="url(#clip0_368_562)">
<path id="Vector" d="M59.2765 2.72175L75.9348 32.7085C76.2356 33.2505 76.3899 33.8617 76.3822 34.4816C76.3745 35.1016 76.2052 35.7087 75.891 36.2432C75.5767 36.7776 75.1285 37.2208 74.5905 37.5289C74.0525 37.837 73.4435 37.9994 72.8235 38H37.4028C36.7824 38.0002 36.1727 37.8384 35.6341 37.5306C35.0955 37.2229 34.6466 36.7798 34.3318 36.2452C34.017 35.7106 33.8472 35.1031 33.8393 34.4828C33.8314 33.8625 33.9857 33.2509 34.2868 32.7085L50.9735 2.717C51.385 1.97687 51.9869 1.3602 52.7168 0.93087C53.4467 0.501536 54.2782 0.275146 55.125 0.275146C55.9718 0.275146 56.8033 0.501536 57.5332 0.93087C58.2631 1.3602 58.865 1.98162 59.2765 2.72175ZM55.0965 33.25C55.7264 33.25 56.3305 32.9998 56.7759 32.5544C57.2213 32.109 57.4715 31.5049 57.4715 30.875C57.4715 30.2451 57.2213 29.641 56.7759 29.1956C56.3305 28.7502 55.7264 28.5 55.0965 28.5C54.4666 28.5 53.8625 28.7502 53.4171 29.1956C52.9717 29.641 52.7215 30.2451 52.7215 30.875C52.7215 31.5049 52.9717 32.109 53.4171 32.5544C53.8625 32.9998 54.4666 33.25 55.0965 33.25ZM52.7215 9.5V21.375C52.7215 22.0049 52.9717 22.609 53.4171 23.0544C53.8625 23.4998 54.4666 23.75 55.0965 23.75C55.7264 23.75 56.3305 23.4998 56.7759 23.0544C57.2213 22.609 57.4715 22.0049 57.4715 21.375V9.5C57.4715 8.87011 57.2213 8.26602 56.7759 7.82062C56.3305 7.37522 55.7264 7.125 55.0965 7.125C54.4666 7.125 53.8625 7.37522 53.4171 7.82062C52.9717 8.26602 52.7215 8.87011 52.7215 9.5ZM23.1338 11.6612C16.6975 13.6325 12.4843 19.0047 13.3915 24.9707C14.5189 32.3179 17.0232 39.3862 20.773 45.8042C24.4926 52.224 29.3617 57.9046 35.137 62.5622C39.849 66.3527 46.6225 65.4122 51.5483 60.819C52.4172 60.0111 52.9449 58.9019 53.0235 57.718C53.1021 56.5341 52.7256 55.3649 51.971 54.4492L48.209 49.8797C47.6073 49.1494 46.8011 48.6154 45.8939 48.3463C44.9866 48.0772 44.0197 48.0852 43.117 48.3692L35.1703 50.8725C34.7789 50.9957 34.3623 51.0153 33.961 50.9296C33.5598 50.8438 33.1876 50.6556 32.8808 50.3832L32.6908 50.2075C31.9978 49.5513 31.3322 48.8667 30.6958 48.1555C29.1165 46.4139 27.722 44.5132 26.5348 42.484C24.897 39.6091 23.6812 36.5137 22.9248 33.2927L22.8678 33.041C22.785 32.6382 22.808 32.2208 22.9345 31.8296C23.061 31.4383 23.2868 31.0865 23.5898 30.8085L29.7268 25.1798C30.4233 24.5399 30.9129 23.7066 31.1329 22.7868C31.3529 21.8669 31.2933 20.9023 30.9618 20.0165L28.9003 14.5065C28.4819 13.3873 27.6524 12.4698 26.5809 11.9411C25.5094 11.4124 24.2765 11.3123 23.1338 11.6612ZM32.9425 28.69L27.8505 33.364C28.5185 35.7169 29.4591 37.9838 30.653 40.1185C31.8909 42.2287 33.3841 44.1782 35.099 45.923L41.6968 43.8472C43.5025 43.2796 45.4367 43.2644 47.2513 43.8035C49.0658 44.3426 50.6779 45.4114 51.8808 46.873L55.6428 51.4377C57.1648 53.2873 57.9243 55.6476 57.7663 58.0377C57.6083 60.4278 56.5448 62.6677 54.7925 64.3007C48.665 70.015 39.2315 71.953 32.1635 66.2767C25.9331 61.2524 20.6807 55.1241 16.669 48.1982C12.6196 41.2648 9.91543 33.6293 8.6985 25.6927C7.33525 16.739 13.7525 9.57125 21.7468 7.125C24.0456 6.42218 26.5259 6.62251 28.6821 7.68517C30.8383 8.74783 32.508 10.5928 33.351 12.844L35.4125 18.354C36.0767 20.1262 36.1965 22.0564 35.7564 23.8971C35.3163 25.7378 34.3365 27.4099 32.9425 28.69Z" fill="white"/>
</g>
<defs>
<clipPath id="clip0_368_562">
<rect width="76" height="76" fill="white" transform="translate(0.5)"/>
</clipPath>
</defs>
</svg>
