<svg width="32" height="32" viewBox="0 0 32 32" fill="none" xmlns="http://www.w3.org/2000/svg">
<g id="Headset">
<path id="Vector" opacity="0.2" d="M10 18V23C10 23.5304 9.78929 24.0391 9.41421 24.4142C9.03914 24.7893 8.53043 25 8 25H6C5.46957 25 4.96086 24.7893 4.58579 24.4142C4.21071 24.0391 4 23.5304 4 23V16H8C8.53043 16 9.03914 16.2107 9.41421 16.5858C9.78929 16.9609 10 17.4696 10 18ZM24 16C23.4696 16 22.9609 16.2107 22.5858 16.5858C22.2107 16.9609 22 17.4696 22 18V23C22 23.5304 22.2107 24.0391 22.5858 24.4142C22.9609 24.7893 23.4696 25 24 25H28V16H24Z" fill="#277875"/>
<path id="Vector_2" d="M25.2362 6.8325C23.4201 5.00574 21.1026 3.75922 18.5773 3.25091C16.052 2.7426 13.4327 2.99537 11.0512 3.9772C8.66969 4.95903 6.63328 6.62572 5.19998 8.76607C3.76667 10.9064 3.00101 13.4241 3 16V23C3 23.7957 3.31607 24.5587 3.87868 25.1213C4.44129 25.6839 5.20435 26 6 26H8C8.79565 26 9.55871 25.6839 10.1213 25.1213C10.6839 24.5587 11 23.7957 11 23V18C11 17.2044 10.6839 16.4413 10.1213 15.8787C9.55871 15.3161 8.79565 15 8 15H5.045C5.23785 12.9149 6.02104 10.928 7.30278 9.27213C8.58452 7.61626 10.3117 6.36004 12.2819 5.65071C14.2521 4.94138 16.3836 4.80832 18.4267 5.26714C20.4698 5.72595 22.3398 6.75763 23.8175 8.24125C25.6236 10.0566 26.7345 12.4488 26.9562 15H24C23.2044 15 22.4413 15.3161 21.8787 15.8787C21.3161 16.4413 21 17.2044 21 18V23C21 23.7957 21.3161 24.5587 21.8787 25.1213C22.4413 25.6839 23.2044 26 24 26H27C27 26.7957 26.6839 27.5587 26.1213 28.1213C25.5587 28.6839 24.7956 29 24 29H17C16.7348 29 16.4804 29.1054 16.2929 29.2929C16.1054 29.4804 16 29.7348 16 30C16 30.2652 16.1054 30.5196 16.2929 30.7071C16.4804 30.8946 16.7348 31 17 31H24C25.3261 31 26.5979 30.4732 27.5355 29.5355C28.4732 28.5979 29 27.3261 29 26V16C29.0065 14.2995 28.6774 12.6144 28.0316 11.0412C27.3857 9.46811 26.4358 8.03789 25.2362 6.8325ZM8 17C8.26522 17 8.51957 17.1054 8.70711 17.2929C8.89464 17.4804 9 17.7348 9 18V23C9 23.2652 8.89464 23.5196 8.70711 23.7071C8.51957 23.8946 8.26522 24 8 24H6C5.73478 24 5.48043 23.8946 5.29289 23.7071C5.10536 23.5196 5 23.2652 5 23V17H8ZM24 24C23.7348 24 23.4804 23.8946 23.2929 23.7071C23.1054 23.5196 23 23.2652 23 23V18C23 17.7348 23.1054 17.4804 23.2929 17.2929C23.4804 17.1054 23.7348 17 24 17H27V24H24Z" fill="#277875"/>
</g>
</svg>
