<svg width="28" height="28" viewBox="0 0 28 28" fill="none" xmlns="http://www.w3.org/2000/svg">
<g id="PhoneOutgoing">
<path id="Vector" d="M16.8809 11.1191C16.7996 11.0378 16.7351 10.9413 16.691 10.8351C16.647 10.7289 16.6243 10.615 16.6243 10.5C16.6243 10.385 16.647 10.2712 16.691 10.1649C16.7351 10.0587 16.7996 9.9622 16.8809 9.88094L20.638 6.125H18.375C18.1429 6.125 17.9204 6.03281 17.7563 5.86872C17.5922 5.70463 17.5 5.48207 17.5 5.25C17.5 5.01794 17.5922 4.79538 17.7563 4.63128C17.9204 4.46719 18.1429 4.375 18.375 4.375H22.75C22.9821 4.375 23.2046 4.46719 23.3687 4.63128C23.5328 4.79538 23.625 5.01794 23.625 5.25V9.625C23.625 9.85707 23.5328 10.0796 23.3687 10.2437C23.2046 10.4078 22.9821 10.5 22.75 10.5C22.5179 10.5 22.2954 10.4078 22.1313 10.2437C21.9672 10.0796 21.875 9.85707 21.875 9.625V7.36203L18.1191 11.1191C18.0378 11.2004 17.9413 11.265 17.8351 11.309C17.7289 11.353 17.615 11.3757 17.5 11.3757C17.385 11.3757 17.2712 11.353 17.1649 11.309C17.0587 11.265 16.9622 11.2004 16.8809 11.1191ZM25.3619 19.1494C25.1669 20.6314 24.439 21.9918 23.3143 22.9765C22.1895 23.9611 20.7448 24.5027 19.25 24.5C10.5656 24.5 3.50001 17.4344 3.50001 8.75C3.49733 7.25516 4.03889 5.81046 5.02353 4.68573C6.00817 3.561 7.36857 2.83315 8.85063 2.63813C9.22528 2.59228 9.60472 2.6688 9.93232 2.85625C10.2599 3.04371 10.5181 3.33206 10.6684 3.67828L12.9784 8.83641V8.84953C13.0934 9.11472 13.1409 9.40424 13.1166 9.69224C13.0924 9.98024 12.9972 10.2578 12.8395 10.5C12.8199 10.5295 12.7991 10.5569 12.7772 10.5842L10.5 13.2836C11.3192 14.9483 13.0605 16.6742 14.747 17.4956L17.4092 15.2305C17.4354 15.2085 17.4628 15.188 17.4913 15.1692C17.733 15.0071 18.0115 14.9082 18.3014 14.8815C18.5912 14.8547 18.8831 14.901 19.1505 15.0161L19.1647 15.0227L24.3174 17.3316C24.6644 17.4812 24.9537 17.7391 25.142 18.0667C25.3302 18.3944 25.4074 18.7742 25.3619 19.1494ZM23.625 18.9306C23.625 18.9306 23.6174 18.9306 23.613 18.9306L18.4724 16.6272L15.8091 18.8934C15.7832 18.9153 15.7562 18.9358 15.7281 18.9547C15.4763 19.1227 15.1852 19.2225 14.8833 19.2444C14.5813 19.2662 14.2789 19.2094 14.0055 19.0794C11.9569 18.0895 9.91485 16.0628 8.92392 14.0361C8.7927 13.7647 8.73382 13.464 8.75298 13.1631C8.77214 12.8623 8.8687 12.5715 9.03329 12.3189C9.05184 12.2893 9.07269 12.2611 9.09564 12.2347L11.375 9.53203L9.07814 4.39141C9.0777 4.38704 9.0777 4.38265 9.07814 4.37828C8.01748 4.51664 7.04363 5.0369 6.33896 5.84163C5.63429 6.64636 5.24714 7.68036 5.25001 8.75C5.25406 12.4618 6.73036 16.0204 9.35499 18.645C11.9796 21.2696 15.5382 22.7459 19.25 22.75C20.319 22.7537 21.3527 22.3679 22.1579 21.6647C22.9631 20.9616 23.4846 19.9893 23.625 18.9295V18.9306Z" fill="#BFBFBF"/>
</g>
</svg>
