<svg width="20" height="21" viewBox="0 0 20 21" fill="none" xmlns="http://www.w3.org/2000/svg">
<g id="wrapper">
<path id="Union" d="M17.7586 6.13204L14.268 2.64063C14.1519 2.52453 14.0141 2.43243 13.8624 2.36959C13.7107 2.30676 13.5482 2.27441 13.384 2.27441C13.2198 2.27441 13.0572 2.30676 12.9056 2.36959C12.7539 2.43243 12.6161 2.52453 12.5 2.64063L2.86641 12.275C2.74983 12.3907 2.65741 12.5283 2.59451 12.68C2.5316 12.8317 2.49948 12.9944 2.50001 13.1586V16.65C2.50001 16.9815 2.6317 17.2995 2.86612 17.5339C3.10054 17.7683 3.41849 17.9 3.75001 17.9H7.24141C7.40563 17.9005 7.5683 17.8684 7.71999 17.8055C7.87168 17.7426 8.00935 17.6502 8.12501 17.5336L17.7586 7.90001C17.8747 7.78393 17.9668 7.64612 18.0296 7.49444C18.0925 7.34277 18.1248 7.1802 18.1248 7.01602C18.1248 6.85185 18.0925 6.68928 18.0296 6.5376C17.9668 6.38593 17.8747 6.24812 17.7586 6.13204ZM7.24141 16.65H3.75001V13.1586L10.625 6.2836L14.1164 9.77501L7.24141 16.65ZM15 8.89063L11.5086 5.40001L13.3836 3.52501L16.875 7.01563L15 8.89063Z" fill="white"/>
</g>
</svg>
